<svg xmlns="http://www.w3.org/2000/svg" width="376.32" height="41.272" viewBox="0 0 376.32 41.272">
  <g id="Group_10" data-name="Group 10" transform="translate(-107.04 472.824)">
    <path id="Path_7" data-name="Path 7" d="M31.248-28.056c0-6.5-4.088-11.144-11.928-11.144H5.04V0h7.28V-16.912h3.808L26.656,0h8.12L23.912-17.528C28.672-18.984,31.248-22.9,31.248-28.056ZM19.376-23.632H12.32V-32.48h7.056c2.632,0,4.592,1.232,4.592,4.424S22.008-23.632,19.376-23.632Zm45.416,8.9c0-6.16-3.752-13.944-13.16-13.944-9.688,0-13.552,7.9-13.552,14.56S41.944.448,51.632.448c6.832,0,10.64-3.248,12.824-8.232l-5.6-2.072c-1.68,2.912-3.64,4.368-6.832,4.368a6.477,6.477,0,0,1-6.664-6.384H64.792Zm-13.16-8.008c3.7,0,5.432,2.576,6.048,5.376H45.528A6.236,6.236,0,0,1,51.632-22.736ZM76.5-19.488c.9-2.632,2.912-3.248,4.872-3.248,2.576,0,4.928,1.008,4.928,4.144v1.232h-4.7c-7.112,0-12.04,3.64-12.04,9.24S73.3.448,78.12.448A10.521,10.521,0,0,0,86.8-3.584L87.528,0H93.24V-16.856c0-9.016-5.152-11.816-11.872-11.816-5.768,0-9.856,3.192-10.752,7.84Zm.336,11.256c0-2.52,1.848-3.64,4.816-3.64H86.3v.56c0,3.64-3.36,5.824-6.552,5.824A2.719,2.719,0,0,1,76.832-8.232Zm42.84-1.9c-1.456,2.968-3.472,4.648-6.608,4.648-4.368,0-6.5-3.64-6.5-8.624s2.128-8.624,6.5-8.624c3.136,0,5.152,1.68,6.608,4.648l6.216-2.52c-2.128-5.32-6.552-8.064-12.824-8.064-9.184,0-13.776,6.608-13.776,14.56S103.88.448,113.064.448c6.272,0,10.7-2.744,12.824-8.064ZM147.616-6.16a5.32,5.32,0,0,1-2.688.672c-2.352,0-3.7-1.12-3.7-4.592V-22.288h7.448v-5.936h-7.448V-39.648l-6.944,4.368v7.056H129.92v5.936h4.368v12.32c0,7,3.976,10.416,10.36,10.416A10.659,10.659,0,0,0,149.24-.56Zm6.048-30.184a4.389,4.389,0,0,0,4.48,4.48,4.389,4.389,0,0,0,4.48-4.48,4.389,4.389,0,0,0-4.48-4.48A4.389,4.389,0,0,0,153.664-36.344Zm1.008,8.12V0h6.944V-28.224Zm13.664,14.112c0,8.176,5.264,14.56,14.336,14.56s14.336-6.384,14.336-14.56-5.264-14.56-14.336-14.56S168.336-22.288,168.336-14.112Zm7.28,0c0-4.648,2.576-8.624,7.056-8.624s7.056,3.976,7.056,8.624-2.576,8.624-7.056,8.624S175.616-9.464,175.616-14.112ZM203.28-28.224V0h6.944V-11.256c0-7.448,3.08-11.48,6.44-11.48,2.352,0,4.032,1.288,4.032,4.648V0h6.944V-20.16c0-5.656-3.64-8.512-8.68-8.512a10.679,10.679,0,0,0-8.736,4.984v-4.536ZM250.6,0h7.28V-24.192l7.5,20.608h5.264l7.5-20.608V0h7.28V-39.2h-8.176l-9.24,24.472L258.776-39.2H250.6Zm68.376-14.728c0-6.16-3.752-13.944-13.16-13.944-9.688,0-13.552,7.9-13.552,14.56S296.128.448,305.816.448c6.832,0,10.64-3.248,12.824-8.232l-5.6-2.072c-1.68,2.912-3.64,4.368-6.832,4.368a6.477,6.477,0,0,1-6.664-6.384h19.432Zm-13.16-8.008c3.7,0,5.432,2.576,6.048,5.376H299.712A6.236,6.236,0,0,1,305.816-22.736ZM325.3-28.224V0h6.944V-11.256c0-7.448,3.08-11.48,6.44-11.48,2.352,0,4.032,1.288,4.032,4.648V0h6.944V-20.16c0-5.656-3.64-8.512-8.68-8.512a10.679,10.679,0,0,0-8.736,4.984v-4.536ZM381.36,0V-28.224h-6.944v11.256c0,7.448-3.08,11.48-6.44,11.48-2.352,0-4.032-1.288-4.032-4.648V-28.224H357v20.16c0,5.656,3.64,8.512,8.68,8.512a10.679,10.679,0,0,0,8.736-4.984V0Z" transform="translate(102 -432)"/>
  </g>
</svg>
