<svg xmlns="http://www.w3.org/2000/svg" width="20.003" height="20.003" viewBox="0 0 20.003 20.003">
  <g id="Icon-Plus" transform="translate(-0.07 -0.07)">
    <path id="Fill-38" d="M10.072,20.073a10,10,0,1,1,10-10,10.013,10.013,0,0,1-10,10Zm0-18.9a8.9,8.9,0,1,0,8.9,8.9,8.913,8.913,0,0,0-8.9-8.9Z" fill="#f66" fill-rule="evenodd"/>
    <path id="Fill-39" d="M8,16H18.634v1.182H8Z" transform="translate(-3.245 -6.519)" fill="#f66" fill-rule="evenodd"/>
    <path id="Fill-40" d="M16,8h1.182V18.634H16Z" transform="translate(-6.519 -3.245)" fill="#f66" fill-rule="evenodd"/>
    <path id="Fill-38-2" data-name="Fill-38" d="M10.072,20.073a10,10,0,1,1,10-10,10.013,10.013,0,0,1-10,10Zm0-18.9a8.9,8.9,0,1,0,8.9,8.9,8.913,8.913,0,0,0-8.9-8.9Z" fill="#f66" fill-rule="evenodd"/>
    <path id="Fill-39-2" data-name="Fill-39" d="M8,16H18.634v1.182H8Z" transform="translate(-3.245 -6.519)" fill="#f66" fill-rule="evenodd"/>
    <path id="Fill-40-2" data-name="Fill-40" d="M16,8h1.182V18.634H16Z" transform="translate(-6.519 -3.245)" fill="#f66" fill-rule="evenodd"/>
  </g>
</svg>
