<svg xmlns="http://www.w3.org/2000/svg" viewBox="0 0 2334.384 335.016">
  <g id="Group_12" data-name="Group 12" transform="translate(1651.07 4659)">
    <g id="Group_11" data-name="Group 11" transform="translate(-568.914 -7497.125)">
      <g id="Ellipse_19" data-name="Ellipse 19" transform="translate(-230.086 2838.124)" fill="none" stroke="#59ead2" stroke-width="8">
        <circle cx="85.5" cy="85.5" r="85.5" stroke="none"/>
        <circle cx="85.5" cy="85.5" r="81.5" fill="none"/>
      </g>
      <g id="Ellipse_22" data-name="Ellipse 22" transform="translate(-212.086 2858.124)" fill="none" stroke="#59ead2" stroke-width="8">
        <circle cx="66.5" cy="66.5" r="66.5" stroke="none"/>
        <circle cx="66.5" cy="66.5" r="62.5" fill="none"/>
      </g>
      <g id="Ellipse_23" data-name="Ellipse 23" transform="translate(-190.086 2880.124)" fill="none" stroke="#59ead2" stroke-width="8">
        <ellipse cx="44.5" cy="45" rx="44.5" ry="45" stroke="none"/>
        <ellipse cx="44.5" cy="45" rx="40.5" ry="41" fill="none"/>
      </g>
    </g>
    <path id="Path_7" data-name="Path 7" d="M210.366-188.877c0-43.732-27.521-75.023-80.3-75.023H33.93V0H82.94V-113.854h25.636L179.452,0h54.665L160.979-118C193.024-127.8,210.366-154.193,210.366-188.877Zm-79.924,29.783H82.94V-218.66h47.5c17.719,0,30.914,8.294,30.914,29.783S148.161-159.094,130.442-159.094Zm286.9,59.943c0-41.47-25.259-93.873-88.6-93.873-65.221,0-91.234,53.157-91.234,98.02s26.013,98.02,91.234,98.02c45.994,0,71.63-21.866,86.333-55.419l-37.7-13.949c-11.31,19.6-24.505,29.406-45.994,29.406-29.029,0-43.732-21.866-44.863-42.978H417.339Zm-88.6-53.911c24.882,0,36.569,17.342,40.716,36.192H287.651C291.044-134.966,304.993-153.062,328.744-153.062ZM477.282-131.2c6.032-17.719,19.6-21.866,32.8-21.866,17.342,0,33.176,6.786,33.176,27.9v8.294H511.589c-47.879,0-81.055,24.5-81.055,62.205S455.793,3.016,488.215,3.016c27.144,0,45.24-10.933,58.435-27.144L551.551,0h38.454V-113.477c0-60.7-34.684-79.547-79.924-79.547-38.831,0-66.352,21.489-72.384,52.78Zm2.262,75.777c0-16.965,12.441-24.5,32.422-24.5h31.291v3.77c0,24.505-22.62,39.208-44.109,39.208C485.953-36.946,479.544-46.371,479.544-55.419ZM749.1-68.237c-9.8,19.981-23.374,31.291-44.486,31.291-29.406,0-43.732-24.505-43.732-58.058s14.326-58.058,43.732-58.058c21.112,0,34.684,11.31,44.486,31.291l41.847-16.965c-14.326-35.815-44.109-54.288-86.333-54.288-61.828,0-92.742,44.486-92.742,98.02s30.914,98.02,92.742,98.02c42.224,0,72.007-18.473,86.333-54.288ZM918.372-41.47a35.813,35.813,0,0,1-18.1,4.524c-15.834,0-24.882-7.54-24.882-30.914v-82.186h50.141v-39.962H875.394v-76.908L828.646-237.51v47.5H799.24v39.962h29.406v82.94c0,47.125,26.767,70.122,69.745,70.122A71.755,71.755,0,0,0,929.3-3.77Zm21.866-203.2c0,16.965,12.818,30.16,30.16,30.16s30.16-13.195,30.16-30.16-12.818-30.16-30.16-30.16S940.238-261.638,940.238-244.673Zm6.786,54.665V0h46.748V-190.008Zm73.138,95c0,55.042,35.438,98.02,96.512,98.02s96.512-42.978,96.512-98.02-35.438-98.02-96.512-98.02S1020.162-150.046,1020.162-95Zm49.01,0c0-31.291,17.342-58.058,47.5-58.058s47.5,26.767,47.5,58.058-17.342,58.058-47.5,58.058S1069.172-63.713,1069.172-95Zm167.388-95V0h46.748V-75.777c0-50.141,20.735-77.285,43.355-77.285,15.834,0,27.144,8.671,27.144,31.291V0h46.748V-135.72c0-38.077-24.505-57.3-58.435-57.3-24.505,0-44.863,13.572-58.812,33.553v-30.537ZM1671.618,0V-73.892c0-53.534,18.473-79.17,41.093-79.17,13.949,0,23.374,7.163,23.374,26.39V0h46.748V-134.589c0-36.569-21.112-58.435-56.55-58.435-23.374,0-44.486,14.7-58.058,39.208-8.294-27.521-29.783-39.208-53.157-39.208-24.505,0-40.716,12.441-54.665,33.553v-30.537h-46.748V0H1560.4V-69.745c0-56.55,18.1-83.317,41.093-83.317,13.949,0,23.374,7.163,23.374,26.39V0Zm314.418-99.151c0-41.47-25.259-93.873-88.6-93.873-65.221,0-91.234,53.157-91.234,98.02s26.013,98.02,91.234,98.02c45.994,0,71.63-21.866,86.333-55.419l-37.7-13.949c-11.31,19.6-24.505,29.406-45.994,29.406-29.029,0-43.732-21.866-44.863-42.978h130.819Zm-88.6-53.911c24.882,0,36.569,17.342,40.716,36.192h-81.809C1859.741-134.966,1873.69-153.062,1897.441-153.062Zm112.346-36.946V0h46.748V-75.777c0-50.141,20.735-77.285,43.355-77.285,15.834,0,27.144,8.671,27.144,31.291V0h46.748V-135.72c0-38.077-24.505-57.3-58.435-57.3-24.5,0-44.863,13.572-58.812,33.553v-30.537ZM2368.314,0V-190.008h-46.748v75.777c0,50.141-20.735,77.285-43.355,77.285-15.834,0-27.144-8.671-27.144-31.291V-190.008h-46.748v135.72c0,38.077,24.5,57.3,58.435,57.3,24.5,0,44.863-13.572,58.812-33.553V0Z" transform="translate(-1685 -4327)"/>
  </g>
</svg>
