<svg xmlns="http://www.w3.org/2000/svg" width="20" height="20" viewBox="0 0 20 20">
  <g id="Group_34" data-name="Group 34" transform="translate(-1924 -848)">
    <rect id="Rectangle_17" data-name="Rectangle 17" width="20" height="20" transform="translate(1924 848)" fill="none"/>
    <g id="Icon-Gear" transform="translate(1924 847.93)">
      <path id="Fill-45" d="M14.787,19.5A4.717,4.717,0,1,1,19.5,14.787,4.723,4.723,0,0,1,14.787,19.5Zm0-8.452a3.735,3.735,0,1,0,3.735,3.735,3.739,3.739,0,0,0-3.735-3.735Z" transform="translate(-4.717 -4.717)" fill="#f66" fill-rule="evenodd"/>
      <path id="Fill-46" d="M11.48,20.07H8.66l-.814-2.441A7.842,7.842,0,0,1,6.3,16.988L4,18.138,2,16.143l1.151-2.3a7.821,7.821,0,0,1-.641-1.549L.07,11.48V8.66l2.441-.814A7.821,7.821,0,0,1,3.152,6.3L2,4,4,2,6.3,3.152a7.842,7.842,0,0,1,1.549-.641L8.66.07H11.48l.814,2.441a7.855,7.855,0,0,1,1.549.641L16.143,2l2,2L16.988,6.3a7.822,7.822,0,0,1,.641,1.549l2.441.814V11.48l-2.441.814a7.822,7.822,0,0,1-.641,1.549l1.151,2.3-2,1.995-2.3-1.15a7.856,7.856,0,0,1-1.549.641L11.48,20.07Zm-2.113-.983h1.405l.758-2.272.259-.067a6.865,6.865,0,0,0,1.789-.741l.23-.136,2.141,1.071.994-.994-1.071-2.141.137-.231a6.887,6.887,0,0,0,.741-1.789l.066-.259,2.272-.757V9.367L16.816,8.61l-.066-.259a6.887,6.887,0,0,0-.741-1.789l-.137-.231L16.943,4.19,15.95,3.2,13.809,4.268l-.23-.136a6.865,6.865,0,0,0-1.789-.741l-.259-.067-.758-2.272H9.367L8.61,3.324l-.259.067a6.865,6.865,0,0,0-1.789.741l-.23.136L4.19,3.2,3.2,4.19,4.268,6.331l-.137.231A6.887,6.887,0,0,0,3.39,8.352l-.067.259-2.271.757v1.405l2.271.757.067.259a6.887,6.887,0,0,0,.741,1.789l.137.231L3.2,15.95l.994.994,2.141-1.071.23.136a6.865,6.865,0,0,0,1.789.741l.259.067.758,2.272Z" fill="#f66" fill-rule="evenodd"/>
    </g>
  </g>
</svg>
